<mxfile host="65bd71144e">
    <diagram id="XvPRe0NY_XkeJn2t7DHm" name="Page-1">
        <mxGraphModel dx="1266" dy="627" grid="1" gridSize="10" guides="1" tooltips="1" connect="1" arrows="1" fold="1" page="1" pageScale="1" pageWidth="827" pageHeight="1169" math="0" shadow="0">
            <root>
                <mxCell id="0"/>
                <mxCell id="1" parent="0"/>
                <mxCell id="4" value="" style="group" vertex="1" connectable="0" parent="1">
                    <mxGeometry x="20" y="60" width="80" height="30" as="geometry"/>
                </mxCell>
                <mxCell id="2" value="" style="ellipse;html=1;shape=startState;fillColor=#000000;strokeColor=#ff0000;rotation=-90;" vertex="1" parent="4">
                    <mxGeometry width="30" height="30" as="geometry"/>
                </mxCell>
                <mxCell id="3" value="" style="edgeStyle=orthogonalEdgeStyle;html=1;verticalAlign=bottom;endArrow=open;endSize=8;strokeColor=#ff0000;exitX=0.5;exitY=1;exitDx=0;exitDy=0;" edge="1" source="2" parent="4">
                    <mxGeometry relative="1" as="geometry">
                        <mxPoint x="80" y="15" as="targetPoint"/>
                    </mxGeometry>
                </mxCell>
                <mxCell id="5" value="" style="line;strokeWidth=1;fillColor=none;align=left;verticalAlign=middle;spacingTop=-1;spacingLeft=3;spacingRight=3;rotatable=0;labelPosition=right;points=[];portConstraint=eastwest;dashed=1;" vertex="1" parent="1">
                    <mxGeometry y="36" width="825" height="8" as="geometry"/>
                </mxCell>
                <mxCell id="9" value="" style="endArrow=none;dashed=1;html=1;" edge="1" parent="1">
                    <mxGeometry width="50" height="50" relative="1" as="geometry">
                        <mxPoint x="280" y="1160" as="sourcePoint"/>
                        <mxPoint x="280" as="targetPoint"/>
                    </mxGeometry>
                </mxCell>
                <mxCell id="10" value="" style="endArrow=none;dashed=1;html=1;" edge="1" parent="1">
                    <mxGeometry width="50" height="50" relative="1" as="geometry">
                        <mxPoint x="560" y="1160" as="sourcePoint"/>
                        <mxPoint x="560" as="targetPoint"/>
                    </mxGeometry>
                </mxCell>
                <mxCell id="11" value="Customer" style="text;html=1;strokeColor=none;fillColor=none;align=center;verticalAlign=middle;whiteSpace=wrap;rounded=0;dashed=1;fontSize=18;fontStyle=1" vertex="1" parent="1">
                    <mxGeometry x="90" y="6" width="90" height="30" as="geometry"/>
                </mxCell>
                <mxCell id="12" value="ATM" style="text;html=1;strokeColor=none;fillColor=none;align=center;verticalAlign=middle;whiteSpace=wrap;rounded=0;dashed=1;fontSize=18;fontStyle=1" vertex="1" parent="1">
                    <mxGeometry x="369" y="6" width="90" height="30" as="geometry"/>
                </mxCell>
                <mxCell id="13" value="Bank" style="text;html=1;strokeColor=none;fillColor=none;align=center;verticalAlign=middle;whiteSpace=wrap;rounded=0;dashed=1;fontSize=18;fontStyle=1" vertex="1" parent="1">
                    <mxGeometry x="660" y="6" width="90" height="30" as="geometry"/>
                </mxCell>
                <mxCell id="14" value="" style="ellipse;html=1;shape=endState;fillColor=#000000;strokeColor=#ff0000;dashed=1;fontSize=18;" vertex="1" parent="1">
                    <mxGeometry x="20" y="735" width="30" height="30" as="geometry"/>
                </mxCell>
                <mxCell id="15" value="Request authentication" style="rounded=1;whiteSpace=wrap;html=1;fontSize=18;" vertex="1" parent="1">
                    <mxGeometry x="100" y="50" width="140" height="70" as="geometry"/>
                </mxCell>
                <mxCell id="22" value="" style="edgeStyle=none;html=1;fontSize=18;exitX=1;exitY=0.5;exitDx=0;exitDy=0;" edge="1" parent="1" source="27" target="21">
                    <mxGeometry relative="1" as="geometry"/>
                </mxCell>
                <mxCell id="26" value="" style="edgeStyle=none;html=1;fontSize=18;" edge="1" parent="1" source="16" target="25">
                    <mxGeometry relative="1" as="geometry"/>
                </mxCell>
                <mxCell id="16" value="Request PIN" style="rounded=1;whiteSpace=wrap;html=1;fontSize=18;" vertex="1" parent="1">
                    <mxGeometry x="360" y="55" width="120" height="60" as="geometry"/>
                </mxCell>
                <mxCell id="17" value="" style="endArrow=classic;html=1;fontSize=18;exitX=1;exitY=0.5;exitDx=0;exitDy=0;entryX=0;entryY=0.5;entryDx=0;entryDy=0;" edge="1" parent="1" source="15" target="16">
                    <mxGeometry width="50" height="50" relative="1" as="geometry">
                        <mxPoint x="450" y="140" as="sourcePoint"/>
                        <mxPoint x="500" y="90" as="targetPoint"/>
                    </mxGeometry>
                </mxCell>
                <mxCell id="24" value="" style="edgeStyle=none;html=1;fontSize=18;" edge="1" parent="1" source="21" target="23">
                    <mxGeometry relative="1" as="geometry"/>
                </mxCell>
                <mxCell id="21" value="Validate PIN" style="whiteSpace=wrap;html=1;fontSize=18;rounded=1;" vertex="1" parent="1">
                    <mxGeometry x="645" y="172.5" width="120" height="60" as="geometry"/>
                </mxCell>
                <mxCell id="29" value="[else]" style="edgeStyle=none;html=1;entryX=1;entryY=0.5;entryDx=0;entryDy=0;fontSize=18;" edge="1" parent="1" source="23" target="16">
                    <mxGeometry x="-0.9144" y="13" relative="1" as="geometry">
                        <Array as="points">
                            <mxPoint x="800" y="303"/>
                            <mxPoint x="800" y="85"/>
                        </Array>
                        <mxPoint as="offset"/>
                    </mxGeometry>
                </mxCell>
                <mxCell id="32" value="[Validation: OK]" style="edgeStyle=none;html=1;fontSize=18;" edge="1" parent="1" source="23" target="31">
                    <mxGeometry x="-0.1892" y="-12" relative="1" as="geometry">
                        <mxPoint x="-1" y="-1" as="offset"/>
                    </mxGeometry>
                </mxCell>
                <mxCell id="23" value="" style="rhombus;whiteSpace=wrap;html=1;fontSize=18;rounded=1;" vertex="1" parent="1">
                    <mxGeometry x="665" y="285" width="80" height="35" as="geometry"/>
                </mxCell>
                <mxCell id="28" value="" style="edgeStyle=none;html=1;fontSize=18;" edge="1" parent="1" source="25" target="27">
                    <mxGeometry relative="1" as="geometry"/>
                </mxCell>
                <mxCell id="25" value="Enter PIN" style="whiteSpace=wrap;html=1;fontSize=18;rounded=1;" vertex="1" parent="1">
                    <mxGeometry x="110" y="172.5" width="120" height="60" as="geometry"/>
                </mxCell>
                <mxCell id="27" value="Accept PIN" style="whiteSpace=wrap;html=1;fontSize=18;rounded=1;" vertex="1" parent="1">
                    <mxGeometry x="360" y="172.5" width="120" height="60" as="geometry"/>
                </mxCell>
                <mxCell id="35" value="" style="edgeStyle=none;html=1;fontSize=18;" edge="1" parent="1" source="31" target="34">
                    <mxGeometry relative="1" as="geometry"/>
                </mxCell>
                <mxCell id="31" value="Show Menu" style="whiteSpace=wrap;html=1;fontSize=18;rounded=1;fillColor=#d5e8d4;strokeColor=#82b366;" vertex="1" parent="1">
                    <mxGeometry x="360" y="272.5" width="120" height="60" as="geometry"/>
                </mxCell>
                <mxCell id="37" value="" style="edgeStyle=none;html=1;fontSize=18;" edge="1" parent="1" source="34" target="36">
                    <mxGeometry relative="1" as="geometry"/>
                </mxCell>
                <mxCell id="34" value="Request withdraw" style="whiteSpace=wrap;html=1;fontSize=18;rounded=1;" vertex="1" parent="1">
                    <mxGeometry x="110" y="272.5" width="120" height="60" as="geometry"/>
                </mxCell>
                <mxCell id="40" value="" style="edgeStyle=none;html=1;fontSize=18;" edge="1" parent="1" source="36" target="39">
                    <mxGeometry relative="1" as="geometry"/>
                </mxCell>
                <mxCell id="36" value="Request amount" style="whiteSpace=wrap;html=1;fontSize=18;rounded=1;" vertex="1" parent="1">
                    <mxGeometry x="360" y="380" width="120" height="60" as="geometry"/>
                </mxCell>
                <mxCell id="42" value="" style="edgeStyle=none;html=1;fontSize=18;" edge="1" parent="1" source="39" target="41">
                    <mxGeometry relative="1" as="geometry"/>
                </mxCell>
                <mxCell id="39" value="Enter amount" style="whiteSpace=wrap;html=1;fontSize=18;rounded=1;" vertex="1" parent="1">
                    <mxGeometry x="110" y="380" width="120" height="60" as="geometry"/>
                </mxCell>
                <mxCell id="44" value="" style="edgeStyle=none;html=1;fontSize=18;" edge="1" parent="1" source="41" target="43">
                    <mxGeometry relative="1" as="geometry"/>
                </mxCell>
                <mxCell id="41" value="Check balance" style="whiteSpace=wrap;html=1;fontSize=18;rounded=1;" vertex="1" parent="1">
                    <mxGeometry x="360" y="490" width="120" height="60" as="geometry"/>
                </mxCell>
                <mxCell id="46" value="" style="edgeStyle=none;html=1;fontSize=18;" edge="1" parent="1" source="43" target="45">
                    <mxGeometry relative="1" as="geometry"/>
                </mxCell>
                <mxCell id="43" value="Validate withdrawal" style="whiteSpace=wrap;html=1;fontSize=18;rounded=1;" vertex="1" parent="1">
                    <mxGeometry x="645" y="490" width="120" height="60" as="geometry"/>
                </mxCell>
                <mxCell id="48" value="[Validation: OK]" style="edgeStyle=none;html=1;fontSize=18;" edge="1" parent="1" source="45" target="47">
                    <mxGeometry x="-0.1459" y="-14" relative="1" as="geometry">
                        <mxPoint as="offset"/>
                    </mxGeometry>
                </mxCell>
                <mxCell id="57" value="[else]" style="edgeStyle=none;html=1;fontSize=18;" edge="1" parent="1" source="45" target="56">
                    <mxGeometry x="0.4323" y="-15" relative="1" as="geometry">
                        <Array as="points">
                            <mxPoint x="705" y="900"/>
                        </Array>
                        <mxPoint as="offset"/>
                    </mxGeometry>
                </mxCell>
                <mxCell id="45" value="" style="rhombus;whiteSpace=wrap;html=1;fontSize=18;rounded=1;" vertex="1" parent="1">
                    <mxGeometry x="665" y="620" width="80" height="40" as="geometry"/>
                </mxCell>
                <mxCell id="52" value="" style="edgeStyle=none;html=1;fontSize=18;" edge="1" parent="1" source="47" target="51">
                    <mxGeometry relative="1" as="geometry"/>
                </mxCell>
                <mxCell id="47" value="Show APPROVED message" style="whiteSpace=wrap;html=1;fontSize=18;rounded=1;fillColor=#d5e8d4;strokeColor=#82b366;" vertex="1" parent="1">
                    <mxGeometry x="360" y="605" width="120" height="70" as="geometry"/>
                </mxCell>
                <mxCell id="54" value="" style="edgeStyle=none;html=1;fontSize=18;" edge="1" parent="1" source="51" target="53">
                    <mxGeometry relative="1" as="geometry"/>
                </mxCell>
                <mxCell id="51" value="Withdraw cash" style="whiteSpace=wrap;html=1;fontSize=18;rounded=1;" vertex="1" parent="1">
                    <mxGeometry x="360" y="720" width="120" height="60" as="geometry"/>
                </mxCell>
                <mxCell id="55" value="" style="edgeStyle=none;html=1;fontSize=18;" edge="1" parent="1" source="53" target="14">
                    <mxGeometry relative="1" as="geometry"/>
                </mxCell>
                <mxCell id="53" value="Logout" style="rounded=1;whiteSpace=wrap;html=1;fontSize=18;" vertex="1" parent="1">
                    <mxGeometry x="110" y="720" width="120" height="60" as="geometry"/>
                </mxCell>
                <mxCell id="59" style="edgeStyle=none;html=1;entryX=0;entryY=0.75;entryDx=0;entryDy=0;fontSize=18;" edge="1" parent="1" source="56" target="36">
                    <mxGeometry relative="1" as="geometry">
                        <Array as="points">
                            <mxPoint x="320" y="905"/>
                            <mxPoint x="320" y="425"/>
                        </Array>
                    </mxGeometry>
                </mxCell>
                <mxCell id="56" value="Show REJECTED&lt;br&gt;message" style="whiteSpace=wrap;html=1;fontSize=18;rounded=1;fillColor=#f8cecc;strokeColor=#b85450;" vertex="1" parent="1">
                    <mxGeometry x="360" y="870" width="120" height="70" as="geometry"/>
                </mxCell>
            </root>
        </mxGraphModel>
    </diagram>
</mxfile>